<?xml version="1.0" standalone="no"?><!DOCTYPE svg PUBLIC "-//W3C//DTD SVG 1.1//EN" "http://www.w3.org/Graphics/SVG/1.1/DTD/svg11.dtd"><svg t="1506834833307" class="icon" style="" viewBox="0 0 1024 1024" version="1.1" xmlns="http://www.w3.org/2000/svg" p-id="1387" xmlns:xlink="http://www.w3.org/1999/xlink" width="200" height="200"><defs><style type="text/css"></style></defs><path d="M563.2 870.4a51.2 51.2 0 0 1-102.4 0V153.6a51.2 51.2 0 0 1 102.4 0v716.8z m0-870.4H460.8a102.4 102.4 0 0 0-102.4 102.4v819.2a102.4 102.4 0 0 0 102.4 102.4h102.4a102.4 102.4 0 0 0 102.4-102.4V102.4a102.4 102.4 0 0 0-102.4-102.4zM204.8 870.4a51.2 51.2 0 0 1-102.4 0V358.4a51.2 51.2 0 0 1 102.4 0v512zM204.8 204.8H102.4a102.4 102.4 0 0 0-102.4 102.4v614.4a102.4 102.4 0 0 0 102.4 102.4h102.4a102.4 102.4 0 0 0 102.4-102.4V307.2a102.4 102.4 0 0 0-102.4-102.4z m716.8 665.6a51.2 51.2 0 0 1-102.4 0v-204.8a51.2 51.2 0 0 1 102.4 0v204.8z m0-358.4h-102.4a102.4 102.4 0 0 0-102.4 102.4v307.2a102.4 102.4 0 0 0 102.4 102.4h102.4a102.4 102.4 0 0 0 102.4-102.4v-307.2a102.4 102.4 0 0 0-102.4-102.4z" p-id="1388"></path></svg>